<?xml version="1.0" encoding="UTF-8" standalone="no"?>
<!-- Created with Inkscape (http://www.inkscape.org/) -->

<svg
   width="209.84709mm"
   height="293.76541mm"
   viewBox="0 0 209.84709 293.76541"
   version="1.1"
   id="svg1"
   xml:space="preserve"
   inkscape:version="1.3 (0e150ed6c4, 2023-07-21)"
   sodipodi:docname="72B_Grupo_6 (1).svg"
   xmlns:inkscape="http://www.inkscape.org/namespaces/inkscape"
   xmlns:sodipodi="http://sodipodi.sourceforge.net/DTD/sodipodi-0.dtd"
   xmlns="http://www.w3.org/2000/svg"
   xmlns:svg="http://www.w3.org/2000/svg"><sodipodi:namedview
     id="namedview1"
     pagecolor="#ffffff"
     bordercolor="#000000"
     borderopacity="0.25"
     inkscape:showpageshadow="2"
     inkscape:pageopacity="0.0"
     inkscape:pagecheckerboard="0"
     inkscape:deskcolor="#d1d1d1"
     inkscape:document-units="mm"
     inkscape:zoom="0.36213173"
     inkscape:cx="2225.7094"
     inkscape:cy="807.71712"
     inkscape:window-width="1920"
     inkscape:window-height="1009"
     inkscape:window-x="-8"
     inkscape:window-y="-8"
     inkscape:window-maximized="1"
     inkscape:current-layer="layer1-6"><inkscape:page
       x="0"
       y="0"
       width="209.84709"
       height="293.76541"
       id="page1"
       margin="0"
       bleed="0"
       inkscape:export-filename="Logos.svg"
       inkscape:export-xdpi="96"
       inkscape:export-ydpi="96" /></sodipodi:namedview><defs
     id="defs1" /><g
     inkscape:label="Camada 1"
     inkscape:groupmode="layer"
     id="layer1-6"
     transform="matrix(0.26458332,0,0,0.26458333,1320.495,-2.0079677)"><path
       style="fill:#000000;stroke-width:0.846543"
       d="M -4990.8476,562.73637 V 7.5891695 h 396.5614 396.5615 V 562.73637 1117.8836 h -396.5615 -396.5614 z m 494.8591,356.51188 c 10.8778,-2.16598 20.8737,-10.1885 25.2771,-20.28694 4.5956,-10.5393 5.7175,-24.94476 2.8029,-35.98778 -2.2071,-8.3622 -4.272,-12.45689 -8.9033,-17.65529 -6.7495,-7.57604 -14.6062,-11.05961 -24.9434,-11.05961 -16.7898,0 -30.5675,11.80704 -35.0426,30.03053 -1.6378,6.66931 -1.6676,18.98641 -0.063,26.13081 4.6698,20.79539 21.5216,32.68129 40.8726,28.82828 z m -16.3427,-10.92262 c -5.3169,-2.78175 -9.5276,-7.83419 -11.8068,-14.16696 -5.8821,-16.34323 -2.7474,-35.89377 7.2342,-45.11859 4.4616,-4.12331 7.7577,-5.24903 15.3881,-5.25561 9.2447,-0.008 15.8177,4.94441 20.7164,15.60868 2.5235,5.49342 2.59,5.95006 2.59,17.78206 v 12.14381 l -3.0944,6.64644 c -4.806,10.32302 -10.9893,14.60531 -21.0889,14.60531 -4.4193,0 -6.5807,-0.48824 -9.9386,-2.24514 z m -259.262,3.76316 c 0.8837,-12.07107 2.1753,-35.88914 2.7147,-50.06166 0.2989,-7.85437 0.8182,-13.51427 1.1541,-12.57756 0.3359,0.93671 1.4414,4.82581 2.4568,8.64245 1.5743,5.91814 15.135,48.87281 18.1556,57.5099 0.9527,2.72411 1.1809,2.84988 4.7201,2.60226 3.5089,-0.24565 3.7875,-0.45636 4.9329,-3.73007 0.6676,-1.90833 1.7211,-4.83583 2.3411,-6.5056 3.2129,-8.65292 12.7088,-36.68059 16.1637,-47.70795 3.2511,-10.37715 3.9509,-11.97054 4,-9.10788 0.095,5.54054 2.411,52.20567 2.9813,60.06868 l 0.519,7.1562 h 4.8828 c 4.0922,0 4.886,-0.24587 4.9022,-1.51802 0.041,-3.20863 -4.2489,-75.39482 -4.6394,-78.06756 l -0.4118,-2.81911 h -6.4105 -6.4104 l -8.6053,24.93826 c -4.7329,13.71603 -9.7582,28.92998 -11.1673,33.80872 l -2.562,8.8704 -3.1419,-11.47267 c -1.728,-6.30995 -4.7414,-16.15676 -6.6964,-21.88172 -1.955,-5.72495 -5.3206,-15.77616 -7.4791,-22.336 l -3.9245,-11.92699 h -6.4256 -6.4255 l -0.4292,2.81911 c -0.2361,1.55051 -1.372,18.43262 -2.5242,37.51581 -1.1523,19.08317 -2.3,36.3556 -2.5505,38.38326 l -0.4554,3.68651 h 4.9371 4.9372 z m 96.1711,-34.69673 -0.2418,-40.98548 -5.1635,-0.25824 -5.1636,-0.25824 v 41.24372 41.24374 h 5.4053 5.4054 z m 27.4349,24.93827 V 886.2831 h 6.0445 c 20.5151,0 31.8998,-9.12189 31.9366,-25.58883 0.02,-9.06549 -1.126,-12.3324 -6.1221,-17.4498 -6.218,-6.36895 -10.4269,-7.71394 -24.0104,-7.6727 -5.9071,0.0179 -12.4924,0.33245 -14.634,0.69891 l -3.8938,0.66631 -0.045,40.72027 -0.045,40.7203 h 5.3845 5.3845 z m 2.272,-25.29241 -2.272,-0.41165 v -15.88966 -15.88966 l 4.3992,-0.57709 c 5.8413,-0.76626 14.1886,0.72308 17.5315,3.12799 4.1228,2.96606 5.7134,6.42423 5.7166,12.429 0.01,10.69378 -6.253,16.90264 -17.5238,17.38428 -3.0688,0.13114 -6.602,0.0532 -7.8515,-0.17321 z m 59.6907,23.45407 v -17.88546 l 7.8386,0.35996 c 6.2433,0.28659 8.303,0.72112 10.1206,2.13487 3.6393,2.83066 5.7855,6.86916 7.2172,13.58034 0.7334,3.43792 2.1015,9.276 3.0401,12.97332 l 1.7066,6.72254 h 5.7218 c 5.2893,0 5.6606,-0.11999 4.9123,-1.58789 -0.4452,-0.87343 -2.1573,-7.21635 -3.8047,-14.09556 -3.4223,-14.2912 -5.3564,-18.58278 -9.7083,-21.5426 l -3.0813,-2.09571 4.0439,-2.42485 c 7.0857,-4.2489 10.0076,-9.77161 9.9789,-18.86172 -0.051,-16.17701 -11.4114,-23.78474 -33.4071,-22.37177 -4.563,0.29312 -9.6834,0.78752 -11.3787,1.09869 l -3.0823,0.56575 -0.2223,40.65804 -0.2224,40.65805 5.1636,-2.1e-4 5.1635,-2.2e-4 z m 0,-40.98094 v -14.62819 l 3.8331,-0.55162 c 9.838,-1.41576 16.8409,0.30303 20.8713,5.12267 4.2787,5.11641 4.2324,13.30859 -0.1079,19.1019 -3.0221,4.0338 -7.5086,5.54303 -16.5413,5.56438 l -8.0552,0.0191 z m 142.3077,24.82071 -0.2066,-34.04649 3.9977,7.80675 c 4.2899,8.3772 9.0002,16.56798 21.4093,37.22874 4.3213,7.19485 9.2012,15.32589 10.8442,18.0691 l 2.9873,4.9877 h 5.1659 5.1659 v -41.20235 -41.20234 h -4.957 -4.9571 l 0.062,21.03488 c 0.034,11.56917 0.3417,26.69482 0.6837,33.61246 0.3421,6.91763 0.5664,12.67067 0.4985,12.78443 -0.068,0.11377 -1.6905,-3.03799 -3.6058,-7.00389 -1.9154,-3.966 -9.6482,-17.52576 -17.1841,-30.13285 -7.5359,-12.60709 -14.6788,-24.59383 -15.8732,-26.63723 l -2.1716,-3.71526 -5.7832,0.24558 -5.7832,0.24559 -0.2417,40.98548 -0.2418,40.9855 5.1988,4.3e-4 5.1988,3.3e-4 z m -243.1004,-128.57231 c 26.2539,-0.33799 44.8122,-6.5103 63.1803,-21.01308 l 4.9787,-3.93099 0.2293,12.24383 0.2292,12.24383 h 37.568 37.568 V 649.0956 c 0,-58.94665 0.3186,-106.41412 0.7158,-106.6719 1.2474,-0.80943 2.9688,2.07264 12.9096,21.61379 8.297,16.31016 13.7341,26.89514 23.1689,45.10571 0.9887,1.90832 5.4311,10.88609 9.8721,19.95061 26.1502,53.37602 31.4579,63.9762 36.2833,72.46337 2.3162,4.07388 9.0443,17.4357 14.9515,29.69293 l 10.7402,22.28586 25.1152,0.0162 25.1153,0.0162 -0.5995,-58.33383 c -0.3297,-32.0836 -0.8878,-87.80433 -1.2403,-123.82384 -0.3524,-36.01951 -0.6959,-65.5876 -0.7634,-65.70687 -0.067,-0.11928 -10.8112,-0.21689 -23.875,-0.21694 l -23.7523,-9e-5 0.2161,70.26091 c 0.1342,43.62099 -0.079,70.26089 -0.5633,70.26089 -1.0801,0 -3.2456,-3.4481 -7.8992,-12.57755 -2.1886,-4.29372 -4.9841,-9.75845 -6.2121,-12.14384 -1.228,-2.3854 -4.2026,-8.24047 -6.6102,-13.01127 -2.4076,-4.7708 -5.7572,-11.40654 -7.4435,-14.74609 -3.7607,-7.44748 -13.0178,-26.19292 -22.9173,-46.40684 -4.0888,-8.34889 -10.4641,-21.31781 -14.1673,-28.81982 -6.4786,-13.12427 -6.6621,-13.65569 -4.8542,-14.0547 1.0334,-0.22806 8.1991,-0.59776 15.9238,-0.82155 14.9654,-0.43356 20.9412,-1.46478 34.286,-5.91662 27.7129,-9.24501 48.8128,-28.48773 61.7696,-56.33258 14.4813,-31.12111 16.5349,-76.03 5.0821,-111.13655 -9.8788,-30.28188 -29.4261,-53.75641 -56.854,-68.27639 -6.4736,-3.42705 -17.6341,-7.60269 -26.9342,-10.07725 -8.7877,-2.33823 -9.7837,-2.4172 -30.1552,-2.39071 -11.587,0.0151 -30.8264,0.33063 -42.7542,0.70126 -16.1597,0.50211 -21.687,0.41974 -21.687,-0.32322 0,-1.00329 -28.1634,-0.81633 -57.1013,0.37907 l -12.0751,0.49881 -3.1192,7.11293 c -1.7156,3.91211 -4.1876,9.5229 -5.4933,12.46842 -6.029,13.60034 -32.2892,81.38463 -36.9064,95.26494 -4.083,12.27436 -13.1015,35.4733 -13.8985,35.75225 -0.8746,0.30608 -3.5933,-6.03682 -3.5933,-8.38336 0,-0.92273 -0.3297,-1.89159 -0.7326,-2.153 -0.4028,-0.26144 -0.9859,-1.89387 -1.2957,-3.62766 -0.3098,-1.73378 -0.8735,-3.78736 -1.2526,-4.56351 -0.3792,-0.77616 -2.0424,-5.90009 -3.6961,-11.38651 -1.6537,-5.48641 -3.3363,-10.75597 -3.739,-11.71014 -0.4028,-0.95416 -1.5133,-4.27203 -2.4678,-7.37305 -0.9545,-3.10101 -2.0601,-6.41888 -2.4568,-7.37304 -0.3968,-0.95417 -1.5376,-4.27204 -2.5352,-7.37306 -0.9975,-3.10101 -2.1182,-6.41888 -2.4902,-7.37304 -0.3721,-0.95416 -0.8621,-2.51551 -1.0889,-3.46967 -0.2268,-0.95416 -1.2114,-3.88169 -2.188,-6.50563 -0.9766,-2.62394 -2.6589,-7.50317 -3.7385,-10.84272 -1.0795,-3.33956 -3.3224,-9.9753 -4.984,-14.7461 -1.6617,-4.7708 -3.2207,-9.65001 -3.4646,-10.84272 -0.2438,-1.1927 -0.8019,-2.6454 -1.2403,-3.22822 -0.4383,-0.58282 -1.0962,-2.33934 -1.4619,-3.90338 -0.3657,-1.56403 -2.0313,-6.74708 -3.7014,-11.51787 -1.6701,-4.7708 -3.312,-9.64718 -3.6486,-10.8364 -0.9531,-3.36675 -8.741,-5.18966 -20.3245,-4.75733 -4.9983,0.18655 -19.4047,0.61196 -32.0141,0.94535 l -22.9262,0.60618 v 120.86965 120.86964 l 17.143,-0.003 c 9.4287,-0.002 21.8832,-0.25735 27.6767,-0.56758 l 10.5337,-0.56405 V 432.4902 c 0,-40.30305 0.2718,-58.85053 0.8624,-58.85053 0.4743,0 0.7589,0.48793 0.6324,1.08427 -0.3109,1.46579 1.8287,6.72249 2.7363,6.72249 0.3992,0 0.7259,0.77328 0.7259,1.71841 0,0.94514 1.0767,4.16542 2.3927,7.1562 1.316,2.99078 4.8079,12.26869 7.7598,20.61759 2.9519,8.34889 10.2319,28.06095 16.1778,43.80458 5.9459,15.74362 11.2051,30.28371 11.6871,32.3113 l 0.8763,3.68652 22.8943,-0.076 c 12.5919,-0.0418 24.7402,-0.33454 26.9963,-0.65056 4.7427,-0.66435 3.7735,0.80991 12.0683,-18.35664 3.2002,-7.39472 6.4205,-14.81114 7.1562,-16.48092 0.7357,-1.66979 8.5167,-19.43016 17.2911,-39.4675 l 15.9535,-36.43154 -0.051,75.46533 c -0.028,41.50593 -0.3481,77.22184 -0.7119,79.3687 -0.3639,2.14686 -0.7081,3.43322 -0.765,2.85857 -0.1333,-1.34731 -7.5931,-9.31558 -12.909,-13.78905 -20.9943,-17.667 -35.7028,-23.22992 -61.5497,-23.27863 -14.7971,-0.028 -19.9538,0.90152 -41.2577,7.43611 -28.0783,8.61253 -44.1794,19.15865 -58.7535,38.48314 -10.0618,13.34132 -18.967,34.05798 -22.5585,52.47875 -3.2522,16.68105 -3.98,40.21922 -1.7801,57.57447 5.7182,45.1109 29.8756,79.92014 64.9777,93.62839 14.4604,5.64719 26.4334,7.64425 41.6095,6.94038 5.9071,-0.27397 17.2463,-0.58188 25.1982,-0.68426 z m -25.4118,-27.35682 c -10.9625,-3.01588 -18.4904,-7.45413 -27.5034,-16.21518 -10.4962,-10.20283 -21.4336,-28.77144 -25.4413,-43.19245 -3.7669,-13.55418 -4.619,-20.25309 -4.6341,-36.43153 -0.021,-22.16758 2.6452,-35.68651 10.1843,-51.64571 5.31,-11.24052 10.6001,-18.9239 19.146,-27.80798 6.1062,-6.34777 8.4513,-8.11266 15.7527,-11.85529 10.9165,-5.5956 15.4324,-6.70611 27.1674,-6.68065 7.5704,0.0164 10.7558,0.4293 15.6764,2.03192 19.887,6.47707 34.9145,21.36598 45.9111,45.48784 14.0475,30.81413 13.5067,72.19118 -1.3475,103.09692 -6.5178,13.56094 -18.093,27.89705 -28.0194,34.70249 -13.6673,9.37017 -31.8019,12.6611 -46.8922,8.50962 z m 190.2327,-265.94924 c -5.6745,-0.60612 -13.9304,-2.10355 -16.6853,-3.02632 l -2.6405,-0.88442 -0.4438,-69.99214 c -0.2441,-38.4957 -0.543,-75.45086 -0.6643,-82.1226 l -0.2204,-12.13044 2.0655,-1.02299 c 4.9937,-2.47334 18.9257,-4.01151 31.6992,-3.49974 14.3849,0.57633 21.1546,1.97172 31.055,6.40111 24.801,11.09599 40.0701,33.86932 43.7801,65.29691 3.2414,27.45772 -1.959,53.3009 -14.4131,71.6251 -9.148,13.45983 -25.1201,23.97067 -42.138,27.7299 -6.3776,1.40881 -24.5936,2.35206 -31.3944,1.62563 z m -37.5029,-234.55136 c 7.2556,-2.11608 18.4333,-11.99395 22.5427,-19.92136 5.9367,-11.45229 6.1058,-26.6274 0.4272,-38.33356 -2.1538,-4.43976 -9.9382,-13.05887 -14.679,-16.25294 -8.6181,-5.80629 -20.9604,-8.20603 -31.9813,-6.21818 -19.2539,3.47281 -34.2293,21.29895 -34.2293,40.74515 0,13.71054 5.371,24.91721 16.0047,33.39391 8.3277,6.63855 10.8312,7.35996 25.7168,7.41078 7.2703,0.0248 14.5595,-0.3459 16.1982,-0.8238 z"
       id="path1-9" /></g></svg>
