<?xml version="1.0" encoding="UTF-8" standalone="no"?>
<!-- Created with Inkscape (http://www.inkscape.org/) -->

<svg
   width="210mm"
   height="297mm"
   viewBox="0 0 210 297"
   version="1.1"
   id="svg1"
   xml:space="preserve"
   xmlns:inkscape="http://www.inkscape.org/namespaces/inkscape"
   xmlns:sodipodi="http://sodipodi.sourceforge.net/DTD/sodipodi-0.dtd"
   xmlns="http://www.w3.org/2000/svg"
   xmlns:svg="http://www.w3.org/2000/svg"><sodipodi:namedview
     id="namedview1"
     pagecolor="#ffffff"
     bordercolor="#000000"
     borderopacity="0.25"
     inkscape:showpageshadow="2"
     inkscape:pageopacity="0.0"
     inkscape:pagecheckerboard="0"
     inkscape:deskcolor="#d1d1d1"
     inkscape:document-units="mm" /><defs
     id="defs1" /><g
     inkscape:label="Camada 1"
     inkscape:groupmode="layer"
     id="layer1"><path
       style="fill:#000000;stroke-width:0.589014"
       d="M 86.907669,180.1863 C 77.11467,175.83086 67.19252,167.05298 67.19252,162.74479 c 0,-5.09143 11.712818,-14.41116 17.658572,-14.05069 7.378591,0.44734 26.245758,0.44734 33.624348,0 5.94575,-0.36047 17.65857,8.95926 17.65857,14.05069 0,7.52878 -23.0168,21.57617 -35.00721,21.36525 -3.090465,-0.0543 -9.489073,-1.82004 -14.219131,-3.92374 z m 0.411615,-42.22483 c -14.507622,-15.83773 2.200137,-40.330112 21.824666,-31.99341 8.69461,3.69357 12.21688,9.33159 12.21688,19.55534 0,16.4185 -22.773322,24.7394 -34.041546,12.43807 z"
       id="path1" /></g></svg>
